<?xml version="1.0" standalone="no"?>
<!DOCTYPE svg PUBLIC "-//W3C//DTD SVG 20010904//EN"
 "http://www.w3.org/TR/2001/REC-SVG-20010904/DTD/svg10.dtd">
<svg version="1.0" xmlns="http://www.w3.org/2000/svg"
 width="16.000000pt" height="16.000000pt" viewBox="0 0 16.000000 16.000000"
 preserveAspectRatio="xMidYMid meet">
<metadata>
Created by potrace 1.11, written by Peter Selinger 2001-2013
</metadata>
<g transform="translate(0.000000,16.000000) scale(0.006226,-0.006226)"
fill="#000000" stroke="none">
<path d="M420 1938 c-115 -16 -187 -68 -233 -167 -21 -45 -22 -57 -22 -461 l0
-415 28 -57 c34 -69 92 -121 161 -145 48 -17 116 -18 1023 -18 l972 0 23 23
23 23 0 589 0 589 -23 23 -23 23 -932 1 c-532 1 -960 -2 -997 -8z m1504 -130
c76 -39 136 -124 136 -193 0 -28 4 -32 43 -42 44 -12 99 -58 122 -102 40 -80
25 -172 -40 -237 -53 -53 -91 -64 -222 -64 l-103 0 0 -70 0 -70 -100 0 -100 0
0 70 0 70 -104 0 c-84 0 -155 10 -174 26 -2 1 6 20 17 43 33 64 28 99 -29 193
l-50 83 27 22 c16 13 42 28 59 33 26 9 33 17 38 49 8 54 53 91 109 91 23 0 48
-4 56 -9 11 -7 22 1 43 29 49 69 123 104 202 94 27 -3 59 -10 70 -16z m-1450
-151 c13 -13 27 -43 31 -65 l7 -42 61 -1 c34 0 141 -4 237 -8 163 -8 175 -10
192 -31 13 -16 17 -32 13 -54 -8 -43 -14 -96 -14 -127 -1 -15 -9 -37 -19 -49
-18 -23 -54 -29 -325 -56 -61 -6 -69 -10 -83 -35 -7 -15 -14 -30 -14 -33 0 -3
91 -7 202 -8 189 -3 203 -4 206 -22 2 -10 -2 -22 -10 -27 -7 -5 -106 -9 -219
-9 -188 0 -209 2 -230 19 -24 19 -24 19 -6 67 9 27 17 60 17 74 0 14 -19 100
-42 193 l-43 167 -48 0 c-49 0 -87 13 -87 30 0 25 34 40 91 40 49 0 64 -4 83
-23z m142 -605 c48 -31 22 -112 -36 -112 -16 0 -60 47 -60 65 0 37 64 69 96
47z m318 -11 c25 -28 17 -72 -16 -90 -25 -14 -29 -14 -55 5 -35 26 -40 57 -14
83 26 26 63 27 85 2z m714 -74 l23 -21 -23 -12 c-17 -9 -25 -9 -36 2 -30 31
-82 5 -82 -41 0 -45 40 -66 81 -44 11 5 29 7 40 4 21 -7 21 -7 -1 -30 -30 -32
-70 -39 -113 -21 -42 17 -57 41 -57 94 0 87 103 129 168 69z m159 18 c34 -15
35 -16 19 -34 -15 -16 -22 -17 -46 -8 -22 8 -33 8 -41 0 -9 -9 -1 -14 32 -23
56 -15 69 -26 69 -59 0 -32 -8 -44 -38 -60 -28 -15 -95 -6 -113 15 -17 21 7
47 31 34 10 -6 31 -10 45 -10 37 0 27 23 -14 31 -37 8 -71 35 -71 58 0 9 7 26
15 38 13 19 25 24 68 32 4 0 24 -6 44 -14z m118 -55 c10 -33 22 -60 26 -60 4
0 16 26 26 58 17 49 23 57 46 60 15 2 27 0 27 -5 0 -4 -14 -48 -32 -96 l-33
-88 -35 3 c-34 3 -35 5 -67 88 -17 47 -32 88 -32 93 -1 4 12 7 27 7 26 0 30
-5 47 -60z"/>
<path d="M1475 1500 c-4 -6 -1 -17 5 -25 16 -19 249 -22 268 -3 9 9 15 9 24 0
8 -8 52 -12 133 -12 121 0 149 7 138 36 -4 11 -56 14 -283 14 -183 0 -281 -4
-285 -10z"/>
<path d="M1670 1355 l-85 -85 48 0 47 0 0 -105 0 -105 80 0 80 0 0 105 0 105
47 0 48 0 -85 85 c-47 47 -87 85 -90 85 -3 0 -43 -38 -90 -85z"/>
<path d="M1477 1396 c-10 -25 16 -36 88 -36 63 0 74 3 95 25 l23 25 -100 0
c-76 0 -102 -3 -106 -14z"/>
<path d="M1860 1385 c21 -22 32 -25 95 -25 72 0 98 11 88 36 -4 11 -30 14
-106 14 l-100 0 23 -25z"/>
<path d="M1484 1295 c-19 -15 -19 -15 0 -30 28 -21 38 -19 71 15 l29 30 -40 0
c-22 0 -49 -7 -60 -15z"/>
<path d="M1965 1280 c33 -34 43 -36 71 -15 19 15 19 15 0 30 -11 8 -38 15 -60
15 l-40 0 29 -30z"/>
<path d="M534 1473 c3 -10 8 -30 12 -45 5 -25 11 -28 45 -28 l39 0 0 45 0 45
-51 0 c-43 0 -50 -2 -45 -17z"/>
<path d="M660 1440 l0 -40 40 0 40 0 0 40 0 40 -40 0 -40 0 0 -40z"/>
<path d="M770 1441 c0 -40 1 -41 36 -41 35 0 35 1 32 38 -3 34 -6 37 -35 40
-32 3 -33 2 -33 -37z"/>
<path d="M870 1440 c0 -28 2 -30 40 -30 38 0 40 2 40 30 0 28 -2 30 -40 30
-38 0 -40 -2 -40 -30z"/>
<path d="M877 1373 c-4 -3 -7 -20 -7 -36 0 -26 3 -29 23 -23 12 3 28 6 35 6 7
0 12 13 12 30 0 26 -4 30 -28 30 -16 0 -32 -3 -35 -7z"/>
<path d="M667 1363 c-4 -3 -7 -21 -7 -40 0 -32 1 -33 40 -33 l40 0 0 40 c0 39
-1 40 -33 40 -19 0 -37 -3 -40 -7z"/>
<path d="M770 1335 c0 -33 2 -35 35 -35 33 0 35 2 35 35 0 33 -2 35 -35 35
-33 0 -35 -2 -35 -35z"/>
<path d="M572 1320 c9 -33 15 -40 34 -40 21 0 24 5 24 40 0 39 -1 40 -34 40
l-34 0 10 -40z"/>
<path d="M567 1014 c-9 -10 4 -34 19 -34 8 0 14 9 14 20 0 19 -19 27 -33 14z"/>
<path d="M874 1009 c-3 -6 -2 -15 4 -21 13 -13 32 -2 32 18 0 16 -26 19 -36 3z"/>
</g>
</svg>
